<svg xmlns="http://www.w3.org/2000/svg" width="900" height="980" viewBox="0 0 900 980" role="img" aria-labelledby="title desc">
  <title id="title">Quadro Kanban Vertical</title>
  <desc id="desc">Ilustracao vertical de board Kanban com colunas Backlog, Em andamento e Concluido.</desc>
  <defs>
    <linearGradient id="bg" x1="0" y1="0" x2="0" y2="1">
      <stop offset="0%" stop-color="#2c2350" />
      <stop offset="100%" stop-color="#181531" />
    </linearGradient>
    <linearGradient id="colTop" x1="0" y1="0" x2="1" y2="1">
      <stop offset="0%" stop-color="#2f2d56" />
      <stop offset="100%" stop-color="#262344" />
    </linearGradient>
    <filter id="shadow" x="-20%" y="-20%" width="140%" height="140%">
      <feDropShadow dx="0" dy="6" stdDeviation="8" flood-color="#000000" flood-opacity="0.35"/>
    </filter>
  </defs>

  <rect width="900" height="980" fill="url(#bg)" />
  <rect x="40" y="28" width="820" height="924" rx="24" fill="#14122a" stroke="#443f7a" />
  <text x="70" y="86" fill="#f5f4ff" font-family="Segoe UI, Arial, sans-serif" font-size="36" font-weight="700">Board Kanban</text>
  <text x="70" y="118" fill="#b9b5df" font-family="Segoe UI, Arial, sans-serif" font-size="20">Fluxo visual de trabalho</text>

  <g transform="translate(64,150)">
    <rect width="236" height="772" rx="16" fill="url(#colTop)" stroke="#4b4587"/>
    <rect x="16" y="16" width="204" height="44" rx="10" fill="#3b3670"/>
    <text x="118" y="45" text-anchor="middle" fill="#f5f4ff" font-family="Segoe UI, Arial, sans-serif" font-size="22" font-weight="700">Backlog</text>

    <rect x="16" y="82" width="204" height="86" rx="12" fill="#262f4b" filter="url(#shadow)"/>
    <rect x="16" y="182" width="204" height="96" rx="12" fill="#2f3153" filter="url(#shadow)"/>
    <rect x="16" y="292" width="204" height="80" rx="12" fill="#2f3359" filter="url(#shadow)"/>
    <rect x="16" y="386" width="204" height="88" rx="12" fill="#26365a" filter="url(#shadow)"/>
    <rect x="16" y="488" width="204" height="98" rx="12" fill="#2f3153" filter="url(#shadow)"/>
    <rect x="16" y="600" width="204" height="72" rx="12" fill="#2d3561" filter="url(#shadow)"/>
    <rect x="16" y="686" width="204" height="70" rx="12" fill="#2b3256" filter="url(#shadow)"/>
  </g>

  <g transform="translate(332,150)">
    <rect width="236" height="772" rx="16" fill="url(#colTop)" stroke="#4b4587"/>
    <rect x="16" y="16" width="204" height="44" rx="10" fill="#4a3c84"/>
    <text x="118" y="45" text-anchor="middle" fill="#f5f4ff" font-family="Segoe UI, Arial, sans-serif" font-size="22" font-weight="700">Em Andamento</text>

    <rect x="16" y="82" width="204" height="122" rx="12" fill="#7046ce" filter="url(#shadow)"/>
    <rect x="16" y="218" width="204" height="112" rx="12" fill="#5f3fb0" filter="url(#shadow)"/>
    <rect x="16" y="344" width="204" height="104" rx="12" fill="#56389f" filter="url(#shadow)"/>
    <rect x="16" y="462" width="204" height="116" rx="12" fill="#4d338f" filter="url(#shadow)"/>
    <rect x="16" y="592" width="204" height="92" rx="12" fill="#5c3cab" filter="url(#shadow)"/>
    <rect x="16" y="698" width="204" height="58" rx="12" fill="#432e80" filter="url(#shadow)"/>
  </g>

  <g transform="translate(600,150)">
    <rect width="236" height="772" rx="16" fill="url(#colTop)" stroke="#4b4587"/>
    <rect x="16" y="16" width="204" height="44" rx="10" fill="#1f6b63"/>
    <text x="118" y="45" text-anchor="middle" fill="#ebfffb" font-family="Segoe UI, Arial, sans-serif" font-size="22" font-weight="700">Concluido</text>

    <rect x="16" y="82" width="204" height="72" rx="12" fill="#2f9185" filter="url(#shadow)"/>
    <rect x="16" y="168" width="204" height="76" rx="12" fill="#338f83" filter="url(#shadow)"/>
    <rect x="16" y="258" width="204" height="68" rx="12" fill="#2e8578" filter="url(#shadow)"/>
    <rect x="16" y="340" width="204" height="80" rx="12" fill="#2d8276" filter="url(#shadow)"/>
    <rect x="16" y="434" width="204" height="74" rx="12" fill="#327f75" filter="url(#shadow)"/>
    <rect x="16" y="522" width="204" height="66" rx="12" fill="#2a766d" filter="url(#shadow)"/>
    <rect x="16" y="602" width="204" height="76" rx="12" fill="#287269" filter="url(#shadow)"/>
    <rect x="16" y="692" width="204" height="64" rx="12" fill="#286f67" filter="url(#shadow)"/>
  </g>
</svg>
