<svg xmlns="http://www.w3.org/2000/svg" viewBox="0 0 64 48" role="img" aria-label="United States flag">
  <rect width="64" height="48" fill="#b22234"/>
  <g fill="#fff">
    <rect y="4" width="64" height="4"/>
    <rect y="12" width="64" height="4"/>
    <rect y="20" width="64" height="4"/>
    <rect y="28" width="64" height="4"/>
    <rect y="36" width="64" height="4"/>
    <rect y="44" width="64" height="4"/>
  </g>
  <rect width="28" height="21" fill="#3c3b6e"/>
  <g fill="#fff">
    <circle cx="4" cy="4" r="1.1"/><circle cx="9" cy="4" r="1.1"/><circle cx="14" cy="4" r="1.1"/><circle cx="19" cy="4" r="1.1"/><circle cx="24" cy="4" r="1.1"/>
    <circle cx="6.5" cy="7.5" r="1.1"/><circle cx="11.5" cy="7.5" r="1.1"/><circle cx="16.5" cy="7.5" r="1.1"/><circle cx="21.5" cy="7.5" r="1.1"/>
    <circle cx="4" cy="11" r="1.1"/><circle cx="9" cy="11" r="1.1"/><circle cx="14" cy="11" r="1.1"/><circle cx="19" cy="11" r="1.1"/><circle cx="24" cy="11" r="1.1"/>
    <circle cx="6.5" cy="14.5" r="1.1"/><circle cx="11.5" cy="14.5" r="1.1"/><circle cx="16.5" cy="14.5" r="1.1"/><circle cx="21.5" cy="14.5" r="1.1"/>
    <circle cx="4" cy="18" r="1.1"/><circle cx="9" cy="18" r="1.1"/><circle cx="14" cy="18" r="1.1"/><circle cx="19" cy="18" r="1.1"/><circle cx="24" cy="18" r="1.1"/>
  </g>
</svg>
